<?xml version="1.0" encoding="UTF-8"?>
<svg id="Layer_2" data-name="Layer 2" xmlns="http://www.w3.org/2000/svg" viewBox="0 0 748 748">
  <defs>
    <style>
      .cls-1 {
        fill: #151617;
      }

      .cls-1, .cls-2 {
        stroke: #184667;
        stroke-miterlimit: 10;
      }

      .cls-2 {
        fill: #c7c7c7;
      }
    </style>
  </defs>
  <g id="Layer_1-2" data-name="Layer 1">
    <g>
      <rect class="cls-1" x=".5" y=".5" width="747" height="747" rx="237" ry="237"/>
      <g>
        <path class="cls-2" d="M287.39,49.18c-.09-.02-.18-.01-.26-.03-.87-.16-1.76-.18-2.64-.05-.11.02-.22-.03-.33,0-.07.01-.12.06-.19.08-.9.19-1.76.53-2.54,1.02-.17.11-.32.23-.48.35-.27.17-.53.35-.77.55L25.93,285.98c-2.37,2.19-3.2,5.59-2.08,8.63l119.03,325.02c.13.29.27.57.43.85.09.18.17.36.27.53.48.79,1.08,1.49,1.8,2.06.05.04.08.11.13.15.09.07.21.08.3.15.72.52,1.52.91,2.37,1.16.08.02.16.07.25.09l.08.03,311.06,75.11h.05c.11.03.23.02.35.05.54.11,1.1.17,1.65.17.21,0,.42-.06.62-.08.46-.03.92-.11,1.36-.22l.14-.02c.21-.06.39-.19.59-.27.39-.14.76-.31,1.12-.51.24-.15.47-.32.7-.5.25-.16.48-.33.71-.51l254.24-234.89c.22-.24.42-.49.6-.75.2-.22.38-.45.55-.68,1.07-1.58,1.53-3.49,1.3-5.39-.04-.29-.1-.58-.18-.86-.05-.32-.11-.63-.19-.94l-119.03-325.02c-.27-.52-.53-1.04-.8-1.56-.23-.33-.48-.65-.75-.94-.15-.17-.26-.37-.42-.53l-.11-.08c-.33-.29-.69-.55-1.07-.79-.2-.13-.37-.29-.58-.4-.36-.17-.73-.32-1.11-.44-.25-.11-.51-.21-.78-.29h0S287.48,49.19,287.48,49.19h-.08ZM280.35,72.71l24.67,134.61-55.03,15.33c-1.01-1.15-2.34-1.98-3.83-2.38-4.29-1.04-8.62,1.6-9.65,5.9l-.06.25-175.34,48.84,219.24-202.56ZM49.81,295.02l182.86-50.94c.17,3.49,2.6,6.45,5.99,7.29,4.29,1.04,8.62-1.6,9.65-5.9l1.49-6.17,52.94-14.75-60.86,252.05-40.2-38.01,1.57-6.49c1.04-4.29-1.6-8.62-5.9-9.65-3.43-.8-6.97.76-8.69,3.83L49.81,295.02ZM48.74,316.03l135.21,127.84v.05c-1.05,4.29,1.59,8.62,5.89,9.65,1.37.3,2.8.21,4.12-.23l41.71,39.44-82.76,107.7L48.74,316.03ZM164.24,611.99l83.16-108.22,65.16,60.62c-.7,1.63-.84,3.44-.39,5.16,1.2,4.31,5.67,6.82,9.97,5.62.01,0,.02,0,.03,0l1.5-.43,109.98,102.32-269.41-65.05ZM340.92,568.92c3.36-2.93,3.71-8.04.77-11.4-2.06-2.36-5.3-3.32-8.31-2.46l-5.64,1.6-65.47-60.91,87.15-24.63,1.5,1.44c3.13,2.97,8.07,2.84,11.05-.28.08-.08.16-.17.23-.26,1.23-1.42,1.94-3.21,2.03-5.08l88.17-24.92c.91.79,2,1.36,3.17,1.66,3.98.94,8.02-1.31,9.32-5.19l53.17-15.03-61.18,253.36-115.97-107.89ZM699.29,461.37l-223.85,206.81,59.52-246.49,164.33,39.68ZM513.2,408.2l-44.15,12.48c.22-3.79-2.28-7.2-5.96-8.12-4.29-1.04-8.62,1.6-9.65,5.9l-1.72,7.12-97.44,27.54-4.76-4.55c-3.13-2.97-8.08-2.84-11.05.29-.08.08-.16.17-.23.26-2.19,2.45-2.77,5.94-1.5,8.97l-79.34,22.42,61.18-253.36,60.36,56.16c-2.52,2.11-3.59,5.49-2.75,8.66,1.04,4.19,5.29,6.74,9.48,5.7.11-.03.21-.05.32-.09l6.29-1.87,74.15,68.98-1.72,7.12c-1.04,4.29,1.6,8.62,5.9,9.65,3.69.86,7.48-1.03,9-4.5l33.59,31.25ZM703.04,445.82l-164.33-39.68,59.52-246.49,104.81,286.17ZM524.49,396.86l-40.45-37.63c.61-4.04-1.96-7.89-5.93-8.87-1.18-.27-2.4-.26-3.58.03l-67.09-62.41c.78-1.71.96-3.63.51-5.46-1.04-4.19-5.29-6.74-9.48-5.7-.11.03-.21.05-.32.09l-1.98.59-65.39-60.83,85.76-24.6,3.66,3.41c3.22,3.05,8.3,2.92,11.35-.3,2.01-2.12,2.71-5.16,1.83-7.95l152.26-43.67-61.17,253.3ZM565.33,132.74l-144.18,41.35-1.74-1.62c-3.26-3.05-8.37-2.88-11.42.37-1.43,1.53-2.21,3.55-2.18,5.65l-85.31,24.47-24.81-135.33,269.64,65.11Z"/>
        <path class="cls-2" d="M255.31,577.25c-4.32,1.23-6.82,5.73-5.59,10.05,1.22,4.3,5.69,6.8,9.99,5.61l15.61-4.44c4.32-1.23,6.82-5.73,5.59-10.05-1.22-4.3-5.69-6.8-9.99-5.61l-15.61,4.44Z"/>
        <path class="cls-2" d="M380.23,541.75c-4.32,1.22-6.84,5.7-5.63,10.03,1.22,4.32,5.7,6.84,10.03,5.63l15.61-4.44c4.32-1.22,6.84-5.7,5.63-10.03-1.22-4.32-5.7-6.84-10.03-5.63h0l-15.61,4.44Z"/>
        <path class="cls-2" d="M192.85,595c-4.32,1.23-6.82,5.73-5.59,10.05,1.22,4.3,5.69,6.8,9.99,5.61l15.61-4.44c4.32-1.23,6.83-5.72,5.6-10.04-1.22-4.3-5.69-6.81-10-5.61l-15.61,4.44Z"/>
        <path class="cls-2" d="M172.67,490.57l-3.76,15.55c-1.04,4.29,1.6,8.62,5.9,9.65s8.62-1.6,9.65-5.9l3.76-15.55c1.04-4.29-1.6-8.62-5.9-9.65s-8.62,1.6-9.65,5.9Z"/>
        <path class="cls-2" d="M157.64,552.79l-3.76,15.55c-1.04,4.29,1.6,8.62,5.9,9.65s8.62-1.6,9.65-5.9l3.76-15.55c1.04-4.29-1.6-8.62-5.9-9.65s-8.62,1.6-9.65,5.9Z"/>
        <path class="cls-2" d="M214.51,385.46l3.76-15.55c1.04-4.29-1.6-8.62-5.9-9.65s-8.62,1.6-9.65,5.9l-3.76,15.55c-1.04,4.29,1.6,8.62,5.9,9.65s8.62-1.6,9.65-5.9Z"/>
        <path class="cls-2" d="M233.29,307.69l3.76-15.55c1.04-4.29-1.6-8.62-5.9-9.65s-8.62,1.6-9.65,5.9l-3.76,15.55c-1.04,4.29,1.6,8.62,5.9,9.65s8.62-1.6,9.65-5.9Z"/>
        <path class="cls-2" d="M263.33,183.27l3.76-15.55c1.04-4.29-1.6-8.62-5.9-9.65s-8.62,1.6-9.65,5.9l-3.76,15.55c-1.04,4.29,1.6,8.62,5.9,9.65s8.62-1.6,9.65-5.9Z"/>
        <path class="cls-2" d="M278.35,121.06l3.76-15.55c1.04-4.29-1.6-8.62-5.9-9.65s-8.62,1.6-9.65,5.9l-3.76,15.55c-1.04,4.29,1.6,8.62,5.9,9.65s8.62-1.6,9.65-5.9Z"/>
        <path class="cls-2" d="M510.4,244.35s-.1-.04-.15-.07c.14.1.25.23.38.34-.09-.08-.13-.19-.23-.27Z"/>
        <path class="cls-2" d="M520.08,214.25l-7.74,9.78c-2.58,3.3-1.99,8.07,1.32,10.65.08.06.16.12.24.18,3.48,2.63,8.41,2.05,11.18-1.32l7.74-9.78c2.58-3.3,1.99-8.07-1.32-10.65-.08-.06-.16-.12-.24-.18-3.48-2.63-8.41-2.05-11.18,1.32Z"/>
        <path class="cls-2" d="M556.04,194.43l7.74-9.78c2.58-3.3,1.99-8.07-1.32-10.65-.08-.06-.16-.12-.24-.18-3.48-2.63-8.41-2.05-11.18,1.32l-7.74,9.78c-2.58,3.3-1.99,8.07,1.32,10.65.08.06.16.12.24.18,3.48,2.63,8.41,2.05,11.18-1.32Z"/>
        <path class="cls-2" d="M483.48,294.04l-3.76,15.55c-1.04,4.29,1.6,8.62,5.9,9.65s8.62-1.6,9.65-5.9l3.76-15.55c1.04-4.29-1.6-8.62-5.9-9.65s-8.62,1.6-9.65,5.9Z"/>
        <path class="cls-2" d="M438.41,480.67l-3.76,15.55c-1.04,4.29,1.6,8.62,5.9,9.65s8.62-1.6,9.65-5.9l3.76-15.55c1.04-4.29-1.6-8.62-5.9-9.65s-8.62,1.6-9.65,5.9Z"/>
        <path class="cls-2" d="M438.09,620.61l2.42,12.23c.93,4.26,5.05,7.03,9.35,6.28,4.14-.62,7-4.48,6.38-8.62-.02-.1-.03-.2-.05-.3l-2.42-12.23c-.93-4.26-5.05-7.03-9.35-6.28-4.14.62-7,4.48-6.38,8.62.02.1.03.2.05.3Z"/>
        <path class="cls-2" d="M428.39,571.69l2.42,12.23c.93,4.26,5.05,7.03,9.35,6.28,4.14-.62,7-4.48,6.38-8.63-.02-.1-.03-.2-.05-.3l-2.42-12.23c-.93-4.26-5.05-7.03-9.35-6.28-4.14.62-7,4.48-6.38,8.62.02.1.03.2.05.3Z"/>
        <path class="cls-2" d="M263.41,377.59c3.02-3.35,2.87-8.48-.34-11.65l-12.35-11.8c-3.13-2.97-8.07-2.84-11.05.29-.08.08-.16.17-.23.26-3.02,3.35-2.87,8.48.34,11.65l12.35,11.8c3.13,2.97,8.07,2.84,11.04-.28.08-.08.16-.17.23-.26Z"/>
        <path class="cls-2" d="M411.6,519.23c3.02-3.35,2.87-8.48-.34-11.65l-12.35-11.8c-3.13-2.97-8.07-2.84-11.05.29-.08.08-.16.17-.23.26-3.02,3.35-2.87,8.48.34,11.65l12.35,11.8c3.13,2.97,8.08,2.84,11.05-.29.08-.08.16-.17.23-.26Z"/>
        <path class="cls-2" d="M288.84,401.89c-3.02,3.35-2.87,8.48.34,11.65l12.35,11.8c3.13,2.97,8.07,2.84,11.05-.29.08-.08.16-.17.23-.26,3.02-3.35,2.87-8.48-.34-11.65l-12.35-11.8c-3.13-2.97-8.07-2.84-11.04.28-.08.08-.16.17-.23.26Z"/>
        <path class="cls-2" d="M447.29,262.29c-4.3,1.35-6.77,5.84-5.6,10.19,1.04,4.19,5.29,6.74,9.48,5.7.11-.03.21-.06.32-.09l16.38-4.87c4.3-1.35,6.77-5.84,5.6-10.19-1.04-4.19-5.29-6.74-9.48-5.7-.11.03-.21.05-.32.09l-16.38,4.87Z"/>
        <path class="cls-2" d="M271.36,331.67c4.3-1.35,6.77-5.84,5.6-10.19-1.04-4.19-5.29-6.74-9.48-5.7-.11.03-.21.06-.32.09l-16.38,4.87c-4.3,1.35-6.77,5.84-5.6,10.19,1.04,4.19,5.29,6.74,9.48,5.7.11-.03.21-.06.32-.09l16.37-4.87Z"/>
        <path class="cls-2" d="M336.86,312.18c4.3-1.35,6.77-5.84,5.6-10.19-1.04-4.19-5.29-6.74-9.48-5.7-.11.03-.21.05-.32.09l-16.38,4.87c-4.3,1.35-6.77,5.84-5.6,10.19,1.04,4.19,5.29,6.74,9.48,5.7.11-.03.21-.05.31-.09l16.37-4.87Z"/>
        <path class="cls-2" d="M225.78,338.8c1.04-4.3-1.6-8.62-5.9-9.66-4.3-1.04-8.62,1.6-9.66,5.9s1.6,8.62,5.9,9.66c2.06.5,4.24.16,6.05-.95,1.81-1.11,3.1-2.89,3.61-4.95Z"/>
        <path class="cls-2" d="M425.27,535.11c-1.04,4.3,1.6,8.62,5.9,9.66,4.3,1.04,8.62-1.6,9.66-5.9,1.04-4.3-1.6-8.62-5.9-9.66-2.06-.5-4.24-.16-6.05.95-1.81,1.11-3.1,2.89-3.61,4.95Z"/>
        <path class="cls-2" d="M524.76,520.14l15.63-4.73c4.35-1.4,6.84-5.97,5.65-10.38-1.04-4.22-5.3-6.81-9.52-5.77-.13.03-.25.07-.38.1l-15.63,4.73c-4.35,1.4-6.84,5.97-5.65,10.38,1.03,4.22,5.3,6.81,9.52,5.77.13-.03.26-.07.38-.1Z"/>
        <path class="cls-2" d="M665.39,477.55c4.35-1.4,6.84-5.97,5.65-10.38-1.03-4.22-5.3-6.81-9.52-5.77-.13.03-.25.07-.38.1l-15.63,4.73c-4.35,1.4-6.84,5.97-5.65,10.38,1.03,4.22,5.3,6.81,9.52,5.77.13-.03.26-.07.38-.1l15.63-4.73Z"/>
        <path class="cls-2" d="M602.89,496.48c4.35-1.4,6.84-5.97,5.65-10.38-1.03-4.22-5.3-6.81-9.52-5.77-.13.03-.25.07-.38.1l-15.63,4.73c-4.35,1.4-6.84,5.97-5.65,10.38,1.03,4.22,5.3,6.81,9.52,5.77.13-.03.25-.07.38-.1l15.63-4.73Z"/>
        <path class="cls-2" d="M465.86,520.65c-.67.25-1.31.6-1.89,1.02-3.16,1.96-4.69,5.75-3.76,9.36,1.02,4.05,5.06,6.58,9.15,5.74.25,0,.5-.03.75-.07l7.78-2.35c4.35-1.4,6.84-5.97,5.65-10.38-1.03-4.22-5.3-6.81-9.52-5.77-.13.03-.26.07-.38.1l-7.78,2.35Z"/>
        <path class="cls-2" d="M384.2,150.75c3.05-3.29,2.87-8.43-.4-11.5l-11.87-11.07c-3.3-3.04-8.45-2.83-11.49.47-3.03,3.29-2.84,8.4.43,11.45l11.87,11.07c3.27,3.05,8.39,2.87,11.44-.4,0,0,.02-.02.02-.02Z"/>
        <path class="cls-2" d="M455.42,217.2c-3.05,3.29-2.87,8.43.4,11.5l11.87,11.07c3.29,3.05,8.44,2.86,11.49-.43,3.05-3.29,2.86-8.44-.43-11.49h0l-11.87-11.07c-3.27-3.05-8.39-2.87-11.44.4,0,0-.01.02-.02.02Z"/>
        <path class="cls-2" d="M336.73,106.46c3.05-3.29,2.87-8.43-.41-11.5l-11.87-11.07c-3.3-3.04-8.45-2.83-11.49.47-3.03,3.29-2.84,8.4.43,11.45l11.87,11.07c3.27,3.05,8.39,2.87,11.44-.4,0,0,.01-.02.02-.02Z"/>
        <path class="cls-2" d="M680.56,427.77c3.07-3.38,2.94-8.58-.29-11.81l-11.74-11.33c-3.14-3.01-8.12-2.9-11.13.24-.09.09-.18.19-.26.29-3.07,3.38-2.94,8.58.29,11.81l11.74,11.33c3.14,3.01,8.12,2.9,11.13-.24.09-.09.18-.19.26-.29Z"/>
        <path class="cls-2" d="M633.59,382.43c3.07-3.38,2.94-8.58-.29-11.81l-11.74-11.33c-3.14-3.01-8.12-2.9-11.13.24-.09.09-.18.19-.26.29-3.07,3.38-2.94,8.58.29,11.81l11.74,11.33c3.14,3.01,8.12,2.9,11.13-.24.09-.09.18-.19.26-.29Z"/>
        <path class="cls-2" d="M586.61,337.09c3.07-3.38,2.94-8.58-.29-11.81l-11.74-11.33c-3.14-3.01-8.12-2.9-11.13.24-.09.09-.18.19-.26.29-3.07,3.38-2.94,8.58.29,11.81l11.74,11.33c3.14,3.01,8.12,2.9,11.13-.24.09-.09.18-.19.26-.29Z"/>
        <path class="cls-2" d="M522.11,274.83c-3.07,3.38-2.94,8.58.3,11.81l1.41,1.36,4.43,4.28c3.14,3.01,8.12,2.9,11.13-.24.09-.09.18-.19.26-.29,3.07-3.38,2.93-8.58-.3-11.81l-4.47-4.32-1.37-1.32c-3.14-3.01-8.12-2.9-11.13.24-.09.09-.18.19-.26.29Z"/>
        <path class="cls-2" d="M492.87,255.16c-1.04,4.3,1.6,8.62,5.9,9.66,4.3,1.04,8.62-1.6,9.66-5.9,1.04-4.3-1.6-8.62-5.9-9.66-2.06-.5-4.24-.16-6.05.95-1.81,1.11-3.1,2.89-3.61,4.95Z"/>
        <path class="cls-2" d="M132.46,316.27c1.04-4.29-1.6-8.62-5.9-9.65l-15.55-3.76c-4.29-1.04-8.62,1.6-9.65,5.9s1.6,8.62,5.9,9.65l15.55,3.76c4.29,1.04,8.62-1.6,9.65-5.9Z"/>
        <path class="cls-2" d="M194.67,331.29c.83-3.56-.89-7.21-4.16-8.84-.54-.34-1.13-.61-1.74-.81l-15.55-3.76c-4.29-1.04-8.62,1.6-9.65,5.9s1.6,8.62,5.9,9.65l15.55,3.76c4.29,1.04,8.62-1.6,9.65-5.9Z"/>
      </g>
    </g>
  </g>
</svg>